<svg xmlns="http://www.w3.org/2000/svg" viewBox="0 0 32 32" width="32" height="32">
  <defs>
    <linearGradient id="cloudGradient" x1="0%" y1="0%" x2="100%" y2="100%">
      <stop offset="0%" style="stop-color:#667eea;stop-opacity:1" />
      <stop offset="100%" style="stop-color:#764ba2;stop-opacity:1" />
    </linearGradient>
    <linearGradient id="shieldGradient" x1="0%" y1="0%" x2="100%" y2="100%">
      <stop offset="0%" style="stop-color:#2563eb;stop-opacity:1" />
      <stop offset="100%" style="stop-color:#0ea5e9;stop-opacity:1" />
    </linearGradient>
  </defs>
  
  <!-- Background circle -->
  <circle cx="16" cy="16" r="15" fill="url(#cloudGradient)" stroke="#ffffff" stroke-width="1"/>
  
  <!-- Cloud shape -->
  <path d="M8 18c-1.1 0-2-.9-2-2s.9-2 2-2c.2-1.7 1.6-3 3.3-3 1.3 0 2.4.7 3 1.7.4-.1.8-.2 1.2-.2 2.2 0 4 1.8 4 4 1.1 0 2 .9 2 2s-.9 2-2 2H8z" 
        fill="rgba(255,255,255,0.3)" 
        stroke="rgba(255,255,255,0.6)" 
        stroke-width="0.5"/>
  
  <!-- Security shield -->
  <path d="M16 8l-4 2v3c0 2.5 1.7 4.8 4 5.4 2.3-.6 4-2.9 4-5.4v-3l-4-2z" 
        fill="url(#shieldGradient)" 
        stroke="#ffffff" 
        stroke-width="0.8"/>
  
  <!-- Lock icon inside shield -->
  <rect x="14.5" y="12.5" width="3" height="2.5" rx="0.3" 
        fill="none" 
        stroke="#ffffff" 
        stroke-width="0.6"/>
  <circle cx="16" cy="11.8" r="0.8" 
         fill="none" 
         stroke="#ffffff" 
         stroke-width="0.6"/>
  
  <!-- Small cloud particles/nodes -->
  <circle cx="10" cy="12" r="1" fill="rgba(255,255,255,0.4)"/>
  <circle cx="22" cy="14" r="0.8" fill="rgba(255,255,255,0.4)"/>
  <circle cx="24" cy="20" r="0.6" fill="rgba(255,255,255,0.4)"/>
</svg>